<?xml version="1.0" encoding="UTF-8" standalone="no"?>
<!-- Created with Inkscape (http://www.inkscape.org/) -->

<svg
   xmlns:dc="http://purl.org/dc/elements/1.1/"
   xmlns:cc="http://creativecommons.org/ns#"
   xmlns:rdf="http://www.w3.org/1999/02/22-rdf-syntax-ns#"
   xmlns:svg="http://www.w3.org/2000/svg"
   xmlns="http://www.w3.org/2000/svg"
   xmlns:sodipodi="http://sodipodi.sourceforge.net/DTD/sodipodi-0.dtd"
   xmlns:inkscape="http://www.inkscape.org/namespaces/inkscape"
   width="100"
   height="80"
   viewBox="0 0 100 80.000003"
   version="1.1"
   id="svg5312"
   sodipodi:docname="j13_gray.svg"
   inkscape:version="0.92.5 (2060ec1f9f, 2020-04-08)">
  <defs
     id="defs5306" />
  <sodipodi:namedview
     id="base"
     pagecolor="#ffffff"
     bordercolor="#666666"
     borderopacity="1.0"
     inkscape:pageopacity="0.0"
     inkscape:pageshadow="2"
     inkscape:zoom="6.0512295"
     inkscape:cx="39.925856"
     inkscape:cy="23.922459"
     inkscape:document-units="px"
     inkscape:current-layer="layer1"
     showgrid="true"
     units="px"
     inkscape:window-width="1848"
     inkscape:window-height="1016"
     inkscape:window-x="72"
     inkscape:window-y="27"
     inkscape:window-maximized="1">
    <inkscape:grid
       type="xygrid"
       id="grid9829" />
  </sodipodi:namedview>
  <metadata
     id="metadata5309">
    <rdf:RDF>
      <cc:Work
         rdf:about="">
        <dc:format>image/svg+xml</dc:format>
        <dc:type
           rdf:resource="http://purl.org/dc/dcmitype/StillImage" />
        <dc:title></dc:title>
      </cc:Work>
    </rdf:RDF>
  </metadata>
  <g
     inkscape:label="Layer 1"
     inkscape:groupmode="layer"
     id="layer1"
     transform="translate(0,-1042.5197)">
    <path
       style="color:#000000;font-style:normal;font-variant:normal;font-weight:normal;font-stretch:normal;font-size:medium;line-height:normal;font-family:sans-serif;font-variant-ligatures:normal;font-variant-position:normal;font-variant-caps:normal;font-variant-numeric:normal;font-variant-alternates:normal;font-feature-settings:normal;text-indent:0;text-align:start;text-decoration:none;text-decoration-line:none;text-decoration-style:solid;text-decoration-color:#000000;letter-spacing:normal;word-spacing:normal;text-transform:none;writing-mode:lr-tb;direction:ltr;text-orientation:mixed;dominant-baseline:auto;baseline-shift:baseline;text-anchor:start;white-space:normal;shape-padding:0;clip-rule:nonzero;display:inline;overflow:visible;visibility:visible;opacity:1;isolation:auto;mix-blend-mode:normal;color-interpolation:sRGB;color-interpolation-filters:linearRGB;solid-color:#000000;solid-opacity:1;vector-effect:none;fill:#707079;fill-opacity:1;fill-rule:nonzero;stroke:none;stroke-width:4.36673784;stroke-linecap:round;stroke-linejoin:bevel;stroke-miterlimit:4;stroke-dasharray:none;stroke-dashoffset:11.80000019;stroke-opacity:1;color-rendering:auto;image-rendering:auto;shape-rendering:auto;text-rendering:auto;enable-background:accumulate"
       d="M 3.9316406 0 L 1.7480469 2.1835938 L 1.7480469 19.304688 L 3.9316406 21.488281 L 22.132812 21.488281 L 22.132812 58.507812 L 3.9316406 58.507812 L 1.7480469 60.691406 L 1.7480469 77.816406 L 3.9316406 80 L 24.310547 80 L 24.316406 80 L 25.859375 79.361328 L 39.253906 65.962891 L 39.253906 77.816406 L 41.4375 80 L 58.5625 80 L 78.947266 80 L 96.068359 80 L 98.251953 77.816406 L 98.251953 60.691406 L 97.611328 59.146484 L 78.464844 40 L 97.611328 20.847656 L 98.251953 19.304688 L 98.251953 2.1835938 L 96.068359 0 L 78.947266 0 L 58.5625 0 L 41.4375 0 L 3.9316406 0 z M 6.1152344 4.3671875 L 39.253906 4.3671875 L 39.253906 59.787109 L 23.412109 75.632812 L 6.1152344 75.632812 L 6.1152344 62.875 L 24.316406 62.875 L 26.498047 60.691406 L 26.498047 19.304688 L 24.316406 17.121094 L 6.1152344 17.121094 L 6.1152344 4.3671875 z M 43.621094 4.3671875 L 56.378906 4.3671875 L 56.378906 19.304688 L 56.378906 31.4375 L 56.378906 48.5625 L 56.378906 60.691406 L 56.378906 75.632812 L 43.621094 75.632812 L 43.621094 60.691406 L 43.621094 4.3671875 z M 60.746094 4.3671875 L 78.947266 4.3671875 L 93.884766 4.3671875 L 93.884766 18.400391 L 73.833984 38.457031 L 73.833984 41.542969 L 93.884766 61.599609 L 93.884766 75.632812 L 78.947266 75.632812 L 60.746094 75.632812 L 60.746094 62.875 L 78.947266 62.875 L 81.130859 60.691406 L 81.130859 59.664062 L 80.490234 58.119141 L 69.390625 47.019531 L 67.845703 46.378906 L 60.746094 46.378906 L 60.746094 33.621094 L 67.845703 33.621094 L 69.390625 32.980469 L 80.490234 21.880859 L 81.130859 20.335938 L 81.130859 19.304688 L 78.947266 17.121094 L 60.746094 17.121094 L 60.746094 4.3671875 z M 60.746094 21.488281 L 74.707031 21.488281 L 66.943359 29.253906 L 60.746094 29.253906 L 60.746094 21.488281 z M 60.746094 50.746094 L 66.943359 50.746094 L 74.703125 58.507812 L 60.746094 58.507812 L 60.746094 50.746094 z "
       transform="translate(0,1042.5197)"
       id="path5000" />
    <g
       aria-label="StreamTeam"
       transform="matrix(0,-2.183369,2.183369,0,-63.987215,1000.8097)"
       style="font-style:normal;font-variant:normal;font-weight:normal;font-stretch:normal;font-size:4.23333311px;line-height:1.25;font-family:sans-serif;-inkscape-font-specification:sans-serif;text-align:start;letter-spacing:0px;word-spacing:0px;text-anchor:start;fill:#707079;fill-opacity:1;stroke:none;stroke-width:0.26458332"
       id="text1108">
      <path
         d="m -50.172611,52.850408 q 0,0.08467 -0.0635,0.1524 -0.0635,0.0635 -0.0635,0.105833 0,0.04657 0.02963,0.110067 0.04233,0.09313 0.105833,0.1143 0.06773,0.02117 0.325967,0.02117 0.220133,0 0.3302,-0.0254 0.110067,-0.0254 0.211667,-0.1016 0.1651,-0.118534 0.2032,-0.186267 0.04233,-0.07197 0.04233,-0.2413 0,-0.127 -0.04657,-0.1778 -0.04657,-0.05503 -0.249766,-0.148167 -0.2921,-0.135466 -0.376767,-0.135466 -0.182033,0 -0.5588,-0.3175 -0.372533,-0.3175 -0.372533,-0.474134 0,-0.224366 0.2286,-0.512233 0.2286,-0.2921 0.512233,-0.427567 0.143933,-0.07197 0.5461,-0.07197 0.1778,0 0.2667,0.0254 0.0889,0.0254 0.1905,0.110066 0.07197,0.05927 0.127,0.1397 0.05503,0.0762 0.05503,0.118534 0,0.1016 -0.03387,0.1016 -0.03387,0 -0.0889,-0.04233 -0.05503,-0.04233 -0.1143,-0.0889 -0.05927,-0.0508 -0.169334,-0.09313 -0.110066,-0.04233 -0.2413,-0.04233 -0.3556,0 -0.651933,0.258233 -0.2921,0.258233 -0.2921,0.5588 0,0.245533 0.872067,0.524933 0.6858,0.2159 0.6858,0.6731 0,0.09313 -0.03387,0.2159 -0.09737,0.3302 -0.3302,0.4572 -0.232833,0.127 -0.8128,0.1651 l -0.381,0.0254 -0.1143,-0.237066 q -0.0889,-0.173567 -0.0889,-0.347134 0,-0.143933 0.06773,-0.232833 0.06773,-0.0889 0.1905,-0.0889 0.09313,0 0.09313,0.1143 z"
         style="font-style:normal;font-variant:normal;font-weight:normal;font-stretch:normal;font-family:Purisa;-inkscape-font-specification:Purisa;fill:#707079;stroke-width:0.26458332;fill-opacity:1"
         id="path4837"
         inkscape:connector-curvature="0" />
      <path
         d="m -47.471751,50.704108 q 0,-0.156633 -0.02963,-0.397933 -0.02963,-0.2413 -0.02963,-0.402167 0,-0.08043 0.0042,-0.105833 0.0127,-0.06773 0.04657,-0.105834 0.0381,-0.04233 0.0762,-0.04233 0.0508,0 0.07197,0.04657 0.0127,0.02963 0.0381,0.313266 0.0254,0.283634 0.04657,0.554567 0.02117,0.270933 0.02963,0.2794 0.0042,0.0042 0.0127,0.0042 0.03387,0 0.194734,-0.03387 0.1651,-0.0381 0.270933,-0.0381 0.211667,0 0.211667,0.09313 0,0.09313 -0.465667,0.207433 l -0.211667,0.0508 0.0254,0.715434 q 0.02117,0.630766 0.08043,1.1811 0.05927,0.5461 0.05927,0.618066 0,0.131234 -0.09737,0.131234 -0.0762,0 -0.127,-0.135467 -0.04657,-0.135467 -0.04657,-0.351367 0,-0.156633 -0.0127,-0.3175 -0.0127,-0.1651 -0.04657,-0.508 -0.02963,-0.347133 -0.05927,-0.7112 -0.0127,-0.194733 -0.02117,-0.300566 -0.0042,-0.105834 -0.0127,-0.156634 -0.0085,-0.0508 -0.0127,-0.05927 -0.0042,-0.0127 -0.01693,-0.0127 -0.06773,0 -0.325967,0.04657 -0.258233,0.04657 -0.321733,0.04657 -0.122767,0 -0.122767,-0.1016 0,-0.07197 0.1524,-0.122767 0.156633,-0.0508 0.351367,-0.0889 0.194733,-0.04233 0.2413,-0.07197 0.04657,-0.03387 0.04657,-0.224367 z"
         style="font-style:normal;font-variant:normal;font-weight:normal;font-stretch:normal;font-family:Purisa;-inkscape-font-specification:Purisa;fill:#707079;stroke-width:0.26458332;fill-opacity:1"
         id="path4839"
         inkscape:connector-curvature="0" />
      <path
         d="m -44.512655,51.588875 q 0.07197,0 0.127,0.04657 0.05503,0.04233 0.05503,0.07197 0,0.0508 -0.160867,0.1143 -0.262467,0.105833 -0.537633,0.512233 -0.270934,0.402167 -0.3302,0.778934 -0.06773,0.427566 -0.110067,0.5588 -0.04233,0.135466 -0.110067,0.135466 -0.05927,0 -0.09313,-0.04233 -0.02963,-0.04233 -0.04233,-0.09313 -0.0085,-0.0508 -0.02117,-0.186267 -0.0042,-0.0254 -0.0042,-0.0381 -0.1016,-1.0668 -0.1016,-1.684867 0,-0.220133 0.01693,-0.270933 0.04657,-0.135467 0.118533,-0.135467 0.06773,0 0.06773,0.1143 0,0.1905 0.05927,0.613834 0.05927,0.423333 0.0889,0.423333 0.0381,0 0.156634,-0.232833 0.148166,-0.275167 0.3937,-0.478367 0.249766,-0.207433 0.427566,-0.207433 z"
         style="font-style:normal;font-variant:normal;font-weight:normal;font-stretch:normal;font-family:Purisa;-inkscape-font-specification:Purisa;fill:#707079;stroke-width:0.26458332;fill-opacity:1"
         id="path4841"
         inkscape:connector-curvature="0" />
      <path
         d="m -41.633992,52.736108 q 0.02117,0 0.02117,0.03387 0,0.0762 -0.1143,0.245533 -0.110067,0.169333 -0.237067,0.2794 -0.4445,0.3937 -0.889,0.3937 -0.169333,0 -0.338666,-0.0762 -0.1651,-0.08043 -0.309034,-0.224367 -0.143933,-0.143933 -0.232833,-0.385233 -0.0889,-0.2413 -0.0889,-0.537633 0,-0.182034 0.04233,-0.309034 0.08467,-0.258233 0.359834,-0.5461 0.2794,-0.287866 0.524933,-0.287866 0.06773,0 0.2032,0.0127 0.2032,0.01693 0.283633,0.04233 0.08467,0.0254 0.1905,0.105833 0.135467,0.1016 0.232833,0.262467 0.1016,0.156633 0.1016,0.262467 0,0.135466 -0.105833,0.207433 -0.105833,0.06773 -0.410633,0.135467 -0.397934,0.0889 -0.778933,0.110066 l -0.3937,0.02117 v 0.169333 q 0,0.313267 0.2921,0.592667 0.220133,0.211667 0.457199,0.211667 0.182034,0 0.385234,-0.110067 0.207433,-0.1143 0.351366,-0.249767 0.143934,-0.135466 0.275167,-0.245533 0.131233,-0.1143 0.1778,-0.1143 z m -0.681567,-1.032933 q -0.131233,-0.118534 -0.198966,-0.148167 -0.0635,-0.03387 -0.169334,-0.03387 -0.211666,0 -0.317499,0.04233 -0.1016,0.0381 -0.207434,0.160866 -0.321733,0.3683 -0.321733,0.491067 0,0.05503 0.1016,0.05503 0.385233,0 1.0922,-0.160866 0.211666,-0.0508 0.211666,-0.1778 0,-0.05927 -0.1905,-0.2286 z"
         style="font-style:normal;font-variant:normal;font-weight:normal;font-stretch:normal;font-family:Purisa;-inkscape-font-specification:Purisa;fill:#707079;stroke-width:0.26458332;fill-opacity:1"
         id="path4843"
         inkscape:connector-curvature="0" />
      <path
         d="m -39.894098,51.538075 q -0.194733,0 -0.414866,0.08043 -0.2159,0.08043 -0.385234,0.1651 -0.169333,0.08043 -0.245533,0.08043 -0.0508,0 -0.0508,-0.04233 0,-0.05927 0.0254,-0.1016 0.0254,-0.04233 0.09313,-0.08043 0.06773,-0.0381 0.127,-0.0635 0.0635,-0.0254 0.198967,-0.07197 0.135467,-0.0508 0.232833,-0.09313 0.2286,-0.0889 0.385234,-0.0889 0.2794,0 0.436033,0.3048 0.0762,0.148166 0.0889,0.275166 0.0127,0.122767 0.02117,0.6985 0.0042,0.321734 0.0127,0.541867 0.0085,0.2159 0.01693,0.275167 l 0.0085,0.05503 q 0,0.05927 -0.05503,0.127 -0.0508,0.06773 -0.0762,0.06773 -0.08467,0 -0.131233,-0.2667 -0.04657,-0.270933 -0.0508,-0.270933 -0.0127,0 -0.0381,0.04657 -0.08467,0.1397 -0.3429,0.309033 -0.254,0.1651 -0.427567,0.1651 -0.105833,0 -0.249766,-0.0381 -0.1397,-0.04233 -0.2032,-0.0889 -0.04657,-0.0381 -0.08043,-0.1524 -0.02963,-0.1143 -0.02963,-0.232833 0,-0.1778 0.09313,-0.3048 0.09737,-0.131234 0.3429,-0.2667 0.2667,-0.156634 0.516467,-0.156634 0.1016,0 0.169333,0.03387 0.06773,0.03387 0.1016,0.07197 0.03387,0.03387 0.05503,0.03387 0.01693,0 0.08043,0.04657 0.0635,0.04233 0.06773,0.04233 0.01693,0 0.01693,-0.09313 0,-0.567267 -0.08043,-0.7874 -0.0762,-0.220133 -0.2286,-0.220133 z m 0.1905,1.312333 q 0,-0.01693 -0.0127,-0.0381 -0.0085,-0.0254 -0.04233,-0.05503 -0.02963,-0.03387 -0.08043,-0.05927 -0.04657,-0.02963 -0.131234,-0.04657 -0.08467,-0.02117 -0.1905,-0.02117 -0.182033,0 -0.321733,0.0635 -0.135467,0.0635 -0.2032,0.160866 -0.06773,0.09737 -0.1016,0.182034 -0.02963,0.08043 -0.02963,0.143933 0,0.105833 0.01693,0.143933 0.02117,0.0381 0.09737,0.08043 0.09313,0.04657 0.169333,0.04657 0.143933,0 0.3556,-0.1016 0.2159,-0.105833 0.2159,-0.1524 0,-0.03387 0.127,-0.160866 0.131233,-0.131234 0.131233,-0.186267 z"
         style="font-style:normal;font-variant:normal;font-weight:normal;font-stretch:normal;font-family:Purisa;-inkscape-font-specification:Purisa;fill:#707079;stroke-width:0.26458332;fill-opacity:1"
         id="path4845"
         inkscape:connector-curvature="0" />
      <path
         d="m -38.463232,51.516908 q 0,-0.245533 0.06773,-0.245533 0.05503,0 0.118534,0.385233 0.06773,0.385233 0.09313,0.385233 0.0085,0 0.02963,-0.0508 0.02117,-0.05503 0.04657,-0.118533 0.0254,-0.06773 0.04233,-0.08467 0.04233,-0.05503 0.1143,-0.207433 0.0889,-0.182033 0.135467,-0.220133 0.04657,-0.04233 0.1651,-0.04233 0.131233,0 0.287866,0.182034 0.1016,0.118533 0.135467,0.220133 0.0381,0.09737 0.08043,0.3556 l 0.06773,0.397933 0.07197,-0.254 q 0.105834,-0.3683 0.3048,-0.635 0.198967,-0.2667 0.3683,-0.2667 0.105834,0 0.194734,0.122767 0.0889,0.118533 0.127,0.3048 0.0381,0.169333 0.0381,0.766233 0,0.4445 -0.0042,0.6858 -0.0042,0.2413 -0.02117,0.351367 -0.0127,0.105833 -0.0254,0.122767 -0.0127,0.02117 -0.04657,0.0254 -0.0127,0.0042 -0.02963,0.0042 -0.0381,0 -0.04657,-0.118533 -0.0085,-0.118534 -0.0127,-0.664634 0,-1.3335 -0.2032,-1.3335 -0.110067,0 -0.287867,0.364067 -0.148166,0.300567 -0.249766,0.732367 -0.1016,0.4318 -0.122767,0.872066 -0.0042,0.105834 -0.0254,0.143934 -0.01693,0.0381 -0.05927,0.0381 -0.0508,0 -0.06773,-0.0889 -0.0127,-0.08467 -0.02963,-0.4572 -0.02963,-0.6858 -0.08467,-0.960967 -0.05503,-0.2794 -0.2032,-0.503767 -0.110067,-0.156633 -0.160867,-0.156633 -0.05927,0 -0.131233,0.148167 -0.07197,0.143933 -0.237066,0.554566 -0.0762,0.198967 -0.0762,0.364067 0,0.09737 -0.0381,0.2159 -0.03387,0.1143 -0.04657,0.5715 -0.0085,0.427567 -0.03387,0.486833 -0.01693,0.0508 -0.06773,0.0508 -0.06773,0 -0.09313,-0.2032 -0.02117,-0.2032 -0.02117,-0.8128 0,-0.491066 -0.03387,-0.9017 -0.02963,-0.410633 -0.02963,-0.524933 z"
         style="font-style:normal;font-variant:normal;font-weight:normal;font-stretch:normal;font-family:Purisa;-inkscape-font-specification:Purisa;fill:#707079;stroke-width:0.26458332;fill-opacity:1"
         id="path4847"
         inkscape:connector-curvature="0" />
      <path
         d="m -34.564333,51.021608 q -0.1397,0 -0.2921,0.03387 -0.1524,0.03387 -0.198967,0.03387 -0.105833,0 -0.182033,-0.0381 -0.07197,-0.0381 -0.07197,-0.09737 0,-0.07197 0.09313,-0.09737 0.09737,-0.02963 0.508,-0.09313 0.833967,-0.127 1.595967,-0.275167 0.4699,-0.0889 0.6096,-0.0889 0.131233,0 0.2667,0.05503 0.135467,0.05503 0.135467,0.122767 0,0.0635 -0.110067,0.110067 -0.110067,0.04233 -0.2921,0.04233 -0.283633,0 -0.605367,0.0762 l -0.325966,0.0762 0.0635,0.3556 q 0.04657,0.3302 0.110066,1.265767 0.06773,0.931333 0.08043,1.0414 0.0127,0.110066 0.0127,0.1651 0,0.131233 -0.1143,0.131233 -0.110067,0 -0.1651,-0.275167 -0.0508,-0.275166 -0.09737,-1.0795 -0.08467,-1.3716 -0.220133,-1.515533 -0.03387,-0.03387 -0.110067,-0.03387 -0.03387,0 -0.2921,0.04233 -0.254,0.04233 -0.397933,0.04233 z"
         style="font-style:normal;font-variant:normal;font-weight:normal;font-stretch:normal;font-family:Purisa;-inkscape-font-specification:Purisa;fill:#707079;stroke-width:0.26458332;fill-opacity:1"
         id="path4849"
         inkscape:connector-curvature="0" />
      <path
         d="m -29.573239,52.736108 q 0.02117,0 0.02117,0.03387 0,0.0762 -0.1143,0.245533 -0.110067,0.169333 -0.237067,0.2794 -0.4445,0.3937 -0.888999,0.3937 -0.169334,0 -0.338667,-0.0762 -0.1651,-0.08043 -0.309033,-0.224367 -0.143934,-0.143933 -0.232834,-0.385233 -0.0889,-0.2413 -0.0889,-0.537633 0,-0.182034 0.04233,-0.309034 0.08467,-0.258233 0.359833,-0.5461 0.2794,-0.287866 0.524933,-0.287866 0.06773,0 0.2032,0.0127 0.2032,0.01693 0.283633,0.04233 0.08467,0.0254 0.1905,0.105833 0.135467,0.1016 0.232834,0.262467 0.1016,0.156633 0.1016,0.262467 0,0.135466 -0.105834,0.207433 -0.105833,0.06773 -0.410633,0.135467 -0.397933,0.0889 -0.778933,0.110066 l -0.3937,0.02117 v 0.169333 q 0,0.313267 0.2921,0.592667 0.220133,0.211667 0.4572,0.211667 0.182033,0 0.385233,-0.110067 0.207433,-0.1143 0.351367,-0.249767 0.143933,-0.135466 0.275166,-0.245533 0.131234,-0.1143 0.1778,-0.1143 z m -0.681566,-1.032933 q -0.131234,-0.118534 -0.198967,-0.148167 -0.0635,-0.03387 -0.169333,-0.03387 -0.211667,0 -0.3175,0.04233 -0.1016,0.0381 -0.207433,0.160866 -0.321734,0.3683 -0.321734,0.491067 0,0.05503 0.1016,0.05503 0.385234,0 1.0922,-0.160866 0.211667,-0.0508 0.211667,-0.1778 0,-0.05927 -0.1905,-0.2286 z"
         style="font-style:normal;font-variant:normal;font-weight:normal;font-stretch:normal;font-family:Purisa;-inkscape-font-specification:Purisa;fill:#707079;stroke-width:0.26458332;fill-opacity:1"
         id="path4851"
         inkscape:connector-curvature="0" />
      <path
         d="m -27.833344,51.538075 q -0.194733,0 -0.414866,0.08043 -0.2159,0.08043 -0.385234,0.1651 -0.169333,0.08043 -0.245533,0.08043 -0.0508,0 -0.0508,-0.04233 0,-0.05927 0.0254,-0.1016 0.0254,-0.04233 0.09313,-0.08043 0.06773,-0.0381 0.127,-0.0635 0.0635,-0.0254 0.198967,-0.07197 0.135467,-0.0508 0.232833,-0.09313 0.2286,-0.0889 0.385234,-0.0889 0.2794,0 0.436033,0.3048 0.0762,0.148166 0.0889,0.275166 0.0127,0.122767 0.02117,0.6985 0.0042,0.321734 0.0127,0.541867 0.0085,0.2159 0.01693,0.275167 l 0.0085,0.05503 q 0,0.05927 -0.05503,0.127 -0.0508,0.06773 -0.0762,0.06773 -0.08467,0 -0.131233,-0.2667 -0.04657,-0.270933 -0.0508,-0.270933 -0.0127,0 -0.0381,0.04657 -0.08467,0.1397 -0.3429,0.309033 -0.254,0.1651 -0.427567,0.1651 -0.105833,0 -0.249766,-0.0381 -0.1397,-0.04233 -0.2032,-0.0889 -0.04657,-0.0381 -0.08043,-0.1524 -0.02963,-0.1143 -0.02963,-0.232833 0,-0.1778 0.09313,-0.3048 0.09737,-0.131234 0.3429,-0.2667 0.2667,-0.156634 0.516467,-0.156634 0.1016,0 0.169333,0.03387 0.06773,0.03387 0.1016,0.07197 0.03387,0.03387 0.05503,0.03387 0.01693,0 0.08043,0.04657 0.0635,0.04233 0.06773,0.04233 0.01693,0 0.01693,-0.09313 0,-0.567267 -0.08043,-0.7874 -0.0762,-0.220133 -0.2286,-0.220133 z m 0.1905,1.312333 q 0,-0.01693 -0.0127,-0.0381 -0.0085,-0.0254 -0.04233,-0.05503 -0.02963,-0.03387 -0.08043,-0.05927 -0.04657,-0.02963 -0.131234,-0.04657 -0.08467,-0.02117 -0.1905,-0.02117 -0.182033,0 -0.321733,0.0635 -0.135467,0.0635 -0.2032,0.160866 -0.06773,0.09737 -0.1016,0.182034 -0.02963,0.08043 -0.02963,0.143933 0,0.105833 0.01693,0.143933 0.02117,0.0381 0.09737,0.08043 0.09313,0.04657 0.169333,0.04657 0.143933,0 0.3556,-0.1016 0.2159,-0.105833 0.2159,-0.1524 0,-0.03387 0.127,-0.160866 0.131233,-0.131234 0.131233,-0.186267 z"
         style="font-style:normal;font-variant:normal;font-weight:normal;font-stretch:normal;font-family:Purisa;-inkscape-font-specification:Purisa;fill:#707079;stroke-width:0.26458332;fill-opacity:1"
         id="path4853"
         inkscape:connector-curvature="0" />
      <path
         d="m -26.402479,51.516908 q 0,-0.245533 0.06773,-0.245533 0.05503,0 0.118533,0.385233 0.06773,0.385233 0.09313,0.385233 0.0085,0 0.02963,-0.0508 0.02117,-0.05503 0.04657,-0.118533 0.0254,-0.06773 0.04233,-0.08467 0.04233,-0.05503 0.1143,-0.207433 0.0889,-0.182033 0.135467,-0.220133 0.04657,-0.04233 0.1651,-0.04233 0.131233,0 0.287866,0.182034 0.1016,0.118533 0.135467,0.220133 0.0381,0.09737 0.08043,0.3556 l 0.06773,0.397933 0.07197,-0.254 q 0.105834,-0.3683 0.3048,-0.635 0.198967,-0.2667 0.3683,-0.2667 0.105834,0 0.194734,0.122767 0.0889,0.118533 0.127,0.3048 0.0381,0.169333 0.0381,0.766233 0,0.4445 -0.0042,0.6858 -0.0042,0.2413 -0.02117,0.351367 -0.0127,0.105833 -0.0254,0.122767 -0.0127,0.02117 -0.04657,0.0254 -0.0127,0.0042 -0.02963,0.0042 -0.0381,0 -0.04657,-0.118533 -0.0085,-0.118534 -0.0127,-0.664634 0,-1.3335 -0.2032,-1.3335 -0.110067,0 -0.287867,0.364067 -0.148166,0.300567 -0.249766,0.732367 -0.1016,0.4318 -0.122767,0.872066 -0.0042,0.105834 -0.0254,0.143934 -0.01693,0.0381 -0.05927,0.0381 -0.0508,0 -0.06773,-0.0889 -0.0127,-0.08467 -0.02963,-0.4572 -0.02963,-0.6858 -0.08467,-0.960967 -0.05503,-0.2794 -0.2032,-0.503767 -0.110067,-0.156633 -0.160867,-0.156633 -0.05927,0 -0.131233,0.148167 -0.07197,0.143933 -0.237067,0.554566 -0.0762,0.198967 -0.0762,0.364067 0,0.09737 -0.0381,0.2159 -0.03387,0.1143 -0.04657,0.5715 -0.0085,0.427567 -0.03387,0.486833 -0.01693,0.0508 -0.06773,0.0508 -0.06773,0 -0.09313,-0.2032 -0.02117,-0.2032 -0.02117,-0.8128 0,-0.491066 -0.03387,-0.9017 -0.02963,-0.410633 -0.02963,-0.524933 z"
         style="font-style:normal;font-variant:normal;font-weight:normal;font-stretch:normal;font-family:Purisa;-inkscape-font-specification:Purisa;fill:#707079;stroke-width:0.26458332;fill-opacity:1"
         id="path4855"
         inkscape:connector-curvature="0" />
    </g>
  </g>
</svg>
