<?xml version="1.0" encoding="UTF-8" standalone="no"?>
<!-- Created with Inkscape (http://www.inkscape.org/) -->

<svg
   xmlns:dc="http://purl.org/dc/elements/1.1/"
   xmlns:cc="http://creativecommons.org/ns#"
   xmlns:rdf="http://www.w3.org/1999/02/22-rdf-syntax-ns#"
   xmlns:svg="http://www.w3.org/2000/svg"
   xmlns="http://www.w3.org/2000/svg"
   xmlns:sodipodi="http://sodipodi.sourceforge.net/DTD/sodipodi-0.dtd"
   xmlns:inkscape="http://www.inkscape.org/namespaces/inkscape"
   width="100"
   height="80"
   viewBox="0 0 100 80.000003"
   version="1.1"
   id="svg5312"
   sodipodi:docname="logo.svg"
   inkscape:version="0.92.5 (2060ec1f9f, 2020-04-08)">
  <defs
     id="defs5306" />
  <sodipodi:namedview
     id="base"
     pagecolor="#ffffff"
     bordercolor="#666666"
     borderopacity="1.0"
     inkscape:pageopacity="0.0"
     inkscape:pageshadow="2"
     inkscape:zoom="6.0512295"
     inkscape:cx="47.560117"
     inkscape:cy="24.125993"
     inkscape:document-units="px"
     inkscape:current-layer="svg5312"
     showgrid="true"
     units="px"
     inkscape:window-width="1848"
     inkscape:window-height="1016"
     inkscape:window-x="72"
     inkscape:window-y="27"
     inkscape:window-maximized="1">
    <inkscape:grid
       type="xygrid"
       id="grid9829" />
  </sodipodi:namedview>
  <metadata
     id="metadata5309">
    <rdf:RDF>
      <cc:Work
         rdf:about="">
        <dc:format>image/svg+xml</dc:format>
        <dc:type
           rdf:resource="http://purl.org/dc/dcmitype/StillImage" />
        <dc:title />
      </cc:Work>
    </rdf:RDF>
  </metadata>
  <path
     d="m 48.493205,15.9364 q -0.536089,0 -0.536089,-0.1479 0,-0.1202 0.841106,-0.2588 0.841105,-0.1479 0.841105,-0.2034 0,-0.018 -0.110915,-0.065 -0.120151,-0.046 -0.258801,-0.1016 -0.14788,-0.055 -0.184866,-0.092 -0.120151,-0.092 -0.452903,-0.2495 -0.397445,-0.1941 -0.480631,-0.2958 -0.09242,-0.1017 -0.09242,-0.3605 0,-0.2865 0.397447,-0.6285 0.258801,-0.2218 0.480632,-0.2958 0.212594,-0.083 0.776406,-0.1756 L 50.58211,12.9142 50.027535,12.757 q -0.804135,-0.2311 -1.38644,-0.6655 -0.582304,-0.4344 -0.582304,-0.8041 0,-0.2311 0.268045,-0.4252 0.258802,-0.1941 0.665491,-0.2773 0.369717,-0.083 1.67297,-0.083 0.970507,0 1.497354,0.01 0.526847,0.01 0.767164,0.046 0.231072,0.028 0.268046,0.055 0.04622,0.028 0.05546,0.1017 0.0092,0.028 0.0092,0.065 0,0.083 -0.258801,0.1016 -0.258803,0.019 -1.451141,0.028 -2.911523,0 -2.911523,0.4436 0,0.2403 0.794893,0.6286 0.656248,0.3235 1.599027,0.5453 0.942779,0.2218 1.904042,0.268 0.231075,0.01 0.314261,0.055 0.08319,0.037 0.08319,0.1294 0,0.1109 -0.194101,0.1479 -0.184866,0.028 -0.998236,0.065 -1.497355,0.065 -2.098146,0.1848 -0.610033,0.1202 -1.099909,0.4437 -0.341988,0.2403 -0.341988,0.3512 0,0.1294 0.323503,0.2866 0.314259,0.1571 1.210823,0.5176 0.434418,0.1663 0.794892,0.1663 0.212595,0 0.47139,0.083 0.249559,0.074 1.247795,0.1017 0.933537,0.019 1.062936,0.074 0.110915,0.037 0.110915,0.1479 0,0.1479 -0.44366,0.2034 -0.443661,0.046 -1.774643,0.046 -1.072178,0 -1.968744,0.074 -0.896563,0.065 -1.146122,0.065 z m 0.04621,3.1241 q 0,0.4251 0.175609,0.9058 0.175608,0.4714 0.360474,0.8411 0.175608,0.3697 0.175608,0.5361 0,0.1109 -0.09242,0.1109 -0.129408,0 -0.22183,-0.055 -0.09242,-0.055 -0.175608,-0.2033 -0.08319,-0.1479 -0.138644,-0.2773 -0.05546,-0.1386 -0.157137,-0.4344 -0.110916,-0.2958 -0.203338,-0.5084 -0.194101,-0.4991 -0.194101,-0.8411 0,-0.61 0.665491,-0.952 0.323501,-0.1664 0.600789,-0.1941 0.268045,-0.028 1.525083,-0.046 0.702464,-0.01 1.183096,-0.028 0.471389,-0.018 0.600791,-0.037 l 0.12015,-0.019 q 0.129409,0 0.277288,0.1202 0.14788,0.1109 0.14788,0.1663 0,0.1849 -0.582305,0.2866 -0.591546,0.1016 -0.591546,0.1109 0,0.028 0.101679,0.083 0.305017,0.1848 0.674733,0.7486 0.360474,0.5546 0.360474,0.9336 0,0.2311 -0.08319,0.5453 -0.09242,0.305 -0.194101,0.4437 -0.08319,0.1017 -0.332746,0.1756 -0.249559,0.065 -0.50836,0.065 -0.388203,0 -0.665491,-0.2034 -0.286532,-0.2126 -0.582305,-0.7486 -0.341989,-0.5823 -0.341989,-1.1277 0,-0.2218 0.07395,-0.3697 0.07395,-0.1479 0.157137,-0.2218 0.07395,-0.074 0.07395,-0.1202 0,-0.037 0.10168,-0.1756 0.09242,-0.1386 0.09242,-0.1479 0,-0.037 -0.203338,-0.037 -1.238553,0 -1.719184,0.1756 -0.480632,0.1664 -0.480632,0.4991 z m 2.865307,-0.416 q -0.03696,0 -0.08319,0.028 -0.05546,0.018 -0.120151,0.092 -0.07395,0.065 -0.129408,0.1756 -0.06469,0.1017 -0.101679,0.2865 -0.04622,0.1849 -0.04622,0.416 0,0.3974 0.138644,0.7024 0.138643,0.2958 0.351229,0.4437 0.212595,0.1479 0.397448,0.2218 0.175608,0.065 0.314259,0.065 0.231072,0 0.314258,-0.037 0.08319,-0.046 0.175609,-0.2126 0.101679,-0.2033 0.101679,-0.3697 0,-0.3142 -0.22183,-0.7764 -0.231072,-0.4714 -0.332745,-0.4714 -0.07395,0 -0.35123,-0.2773 -0.286532,-0.2865 -0.40669,-0.2865 z m -0.249559,4.2148 q 0,-0.046 0.07395,-0.046 0.166373,0 0.536089,0.2495 0.369717,0.2403 0.610034,0.5176 0.859592,0.9705 0.859592,1.941 0,0.3698 -0.166373,0.7395 -0.175608,0.3605 -0.489876,0.6747 -0.314259,0.3143 -0.841106,0.5084 -0.526846,0.1941 -1.173851,0.1941 -0.397447,0 -0.674735,-0.092 -0.563818,-0.1849 -1.192338,-0.7857 -0.628518,-0.61 -0.628518,-1.1461 0,-0.1479 0.02773,-0.4437 0.03697,-0.4436 0.09242,-0.6192 0.05546,-0.1849 0.231073,-0.416 0.22183,-0.2958 0.573062,-0.5083 0.341988,-0.2219 0.573062,-0.2219 0.295773,0 0.452903,0.2311 0.14788,0.2311 0.295775,0.8966 0.194101,0.8688 0.240314,1.7007 l 0.04622,0.8596 h 0.369717 q 0.683977,0 1.29401,-0.6378 0.462148,-0.4806 0.462148,-0.9982 0,-0.3975 -0.240317,-0.8411 -0.249559,-0.453 -0.545334,-0.7672 -0.295772,-0.3143 -0.536089,-0.6008 -0.249559,-0.2865 -0.249559,-0.3882 z m -2.255274,1.4881 q -0.258803,0.2865 -0.323503,0.4344 -0.07395,0.1387 -0.07395,0.3697 0,0.4622 0.09242,0.6933 0.08319,0.2218 0.351229,0.4529 0.804135,0.7024 1.072181,0.7024 0.120151,0 0.120151,-0.2218 0,-0.8411 -0.35123,-2.3847 -0.110915,-0.4621 -0.388203,-0.4621 -0.129408,0 -0.499118,0.4159 z m -1.488112,9.4093 q 0,0.305 0.07395,0.6378 0.07395,0.3327 0.07395,0.4344 0,0.231 -0.08319,0.3974 -0.08319,0.1572 -0.212594,0.1572 -0.157137,0 -0.212595,-0.2034 -0.06469,-0.2126 -0.203337,-1.1091 -0.277288,-1.8209 -0.600791,-3.4846 -0.194102,-1.026 -0.194102,-1.331 0,-0.2865 0.120151,-0.5823 0.120151,-0.2958 0.268046,-0.2958 0.138644,0 0.240317,0.2403 0.09242,0.2404 0.09242,0.6378 0,0.6193 0.166372,1.3217 l 0.166373,0.7117 0.776406,-0.1386 q 0.720948,-0.1017 2.763636,-0.2403 2.033444,-0.1479 2.273761,-0.1756 0.240315,-0.028 0.360474,-0.028 0.28653,0 0.28653,0.2496 0,0.2403 -0.600791,0.3605 -0.600789,0.1109 -2.356947,0.2126 -2.994709,0.1848 -3.308967,0.4806 -0.07395,0.074 -0.07395,0.2403 0,0.074 0.09242,0.6378 0.09242,0.5546 0.09242,0.8688 z m 1.081423,8.5127 q -0.536089,0 -0.536089,-0.1479 0,-0.1201 0.841106,-0.2588 0.841105,-0.1478 0.841105,-0.2033 0,-0.019 -0.110915,-0.065 -0.120151,-0.046 -0.258801,-0.1017 -0.14788,-0.055 -0.184866,-0.092 -0.120151,-0.092 -0.452903,-0.2495 -0.397445,-0.1941 -0.480631,-0.2958 -0.09242,-0.1017 -0.09242,-0.3605 0,-0.2865 0.397447,-0.6285 0.258801,-0.2218 0.480632,-0.2958 0.212594,-0.083 0.776406,-0.1756 L 50.582105,39.2471 50.02753,39.09 q -0.804135,-0.2311 -1.38644,-0.6655 -0.582304,-0.4344 -0.582304,-0.8041 0,-0.2311 0.268045,-0.4252 0.258802,-0.1941 0.665491,-0.2773 0.369717,-0.083 1.67297,-0.083 0.970507,0 1.497354,0.01 0.526847,0.01 0.767164,0.046 0.231072,0.028 0.268046,0.056 0.04622,0.028 0.05546,0.1016 0.0092,0.028 0.0092,0.065 0,0.083 -0.258801,0.1017 -0.258803,0.019 -1.451141,0.028 -2.911523,0 -2.911523,0.4437 0,0.2403 0.794893,0.6285 0.656248,0.3235 1.599027,0.5454 0.942779,0.2218 1.904042,0.268 0.231075,0.01 0.314261,0.055 0.08319,0.037 0.08319,0.1294 0,0.1109 -0.194101,0.1478 -0.184866,0.028 -0.998236,0.065 -1.497355,0.065 -2.098146,0.1849 -0.610033,0.1202 -1.099909,0.4437 -0.341988,0.2403 -0.341988,0.3512 0,0.1294 0.323503,0.2865 0.314259,0.1572 1.210823,0.5176 0.434418,0.1664 0.794892,0.1664 0.212595,0 0.47139,0.083 0.249559,0.074 1.247795,0.1017 0.933537,0.018 1.062936,0.074 0.110915,0.037 0.110915,0.1479 0,0.1479 -0.44366,0.2033 -0.443661,0.046 -1.774643,0.046 -1.072178,0 -1.968744,0.074 -0.896563,0.065 -1.146122,0.065 z m 0.04621,3.1241 q 0,0.4252 0.175609,0.9058 0.175608,0.4714 0.360474,0.8412 0.175608,0.3697 0.175608,0.536 0,0.111 -0.09242,0.111 -0.129408,0 -0.22183,-0.055 -0.09242,-0.055 -0.175608,-0.2033 -0.08319,-0.1479 -0.138644,-0.2773 -0.05546,-0.1387 -0.157137,-0.4344 -0.110916,-0.2958 -0.203338,-0.5084 -0.194101,-0.4991 -0.194101,-0.8411 0,-0.61 0.665491,-0.952 0.323501,-0.1664 0.600789,-0.1941 0.268045,-0.028 1.525083,-0.046 0.702464,-0.01 1.183096,-0.028 0.471389,-0.019 0.600791,-0.037 l 0.12015,-0.018 q 0.129409,0 0.277288,0.1201 0.14788,0.111 0.14788,0.1664 0,0.1849 -0.582305,0.2865 -0.591546,0.1017 -0.591546,0.111 0,0.028 0.101679,0.083 0.305017,0.1849 0.674733,0.7487 0.360474,0.5546 0.360474,0.9336 0,0.231 -0.08319,0.5453 -0.09242,0.305 -0.194101,0.4436 -0.08319,0.1017 -0.332746,0.1757 -0.249559,0.065 -0.50836,0.065 -0.388203,0 -0.665491,-0.2034 -0.286532,-0.2126 -0.582305,-0.7487 -0.341989,-0.5823 -0.341989,-1.1276 0,-0.2218 0.07395,-0.3697 0.07395,-0.1479 0.157137,-0.2218 0.07395,-0.074 0.07395,-0.1202 0,-0.037 0.10168,-0.1756 0.09242,-0.1387 0.09242,-0.1479 0,-0.037 -0.203338,-0.037 -1.238553,0 -1.719184,0.1757 -0.480632,0.1663 -0.480632,0.4991 z m 2.865307,-0.4159 q -0.03696,0 -0.08319,0.028 -0.05546,0.019 -0.120151,0.092 -0.07395,0.065 -0.129408,0.1756 -0.06469,0.1016 -0.101679,0.2865 -0.04622,0.1849 -0.04622,0.4159 0,0.3975 0.138644,0.7025 0.138643,0.2958 0.351229,0.4437 0.212595,0.1478 0.397448,0.2218 0.175608,0.065 0.314259,0.065 0.231072,0 0.314258,-0.037 0.08319,-0.046 0.175609,-0.2126 0.101679,-0.2033 0.101679,-0.3697 0,-0.3143 -0.22183,-0.7764 -0.231072,-0.4714 -0.332745,-0.4714 -0.07395,0 -0.35123,-0.2773 -0.286532,-0.2865 -0.40669,-0.2865 z m -0.249559,4.2148 q 0,-0.046 0.07395,-0.046 0.166373,0 0.536089,0.2496 0.369717,0.2403 0.610034,0.5176 0.859592,0.9705 0.859592,1.941 0,0.3697 -0.166373,0.7395 -0.175608,0.3604 -0.489876,0.6747 -0.314259,0.3143 -0.841106,0.5084 -0.526846,0.1941 -1.173851,0.1941 -0.397447,0 -0.674735,-0.092 -0.563818,-0.1848 -1.192338,-0.7856 -0.628518,-0.6101 -0.628518,-1.1461 0,-0.1479 0.02773,-0.4437 0.03697,-0.4437 0.09242,-0.6193 0.05546,-0.1848 0.231073,-0.4159 0.22183,-0.2958 0.573062,-0.5084 0.341988,-0.2218 0.573062,-0.2218 0.295773,0 0.452903,0.2311 0.14788,0.231 0.295775,0.8965 0.194101,0.8689 0.240314,1.7007 l 0.04622,0.8596 h 0.369717 q 0.683977,0 1.29401,-0.6377 0.462148,-0.4807 0.462148,-0.9983 0,-0.3974 -0.240317,-0.8411 -0.249559,-0.4529 -0.545334,-0.7671 -0.295772,-0.3143 -0.536089,-0.6008 -0.249559,-0.2866 -0.249559,-0.3882 z m -2.255274,1.4881 q -0.258803,0.2865 -0.323503,0.4344 -0.07395,0.1386 -0.07395,0.3697 0,0.4622 0.09242,0.6932 0.08319,0.2219 0.351229,0.4529 0.804135,0.7025 1.072181,0.7025 0.120151,0 0.120151,-0.2218 0,-0.8411 -0.35123,-2.3847 -0.110915,-0.4622 -0.388203,-0.4622 -0.129408,0 -0.499118,0.416 z m -0.249559,4.7971 q 0,-0.1572 0.10168,-0.2773 0.09242,-0.1202 0.157137,-0.1202 0.110915,0 0.249559,0.3512 0.231073,0.5731 1.118394,1.1739 0.878079,0.5915 1.7007,0.7209 0.933534,0.1479 1.220067,0.2404 0.295772,0.092 0.295772,0.2403 0,0.1294 -0.09242,0.2033 -0.09242,0.065 -0.203337,0.092 -0.110915,0.019 -0.40669,0.046 -0.05546,0.01 -0.08319,0.01 -2.329218,0.2219 -3.678687,0.2219 -0.480631,0 -0.591546,-0.037 -0.295775,-0.1017 -0.295775,-0.2588 0,-0.1479 0.249559,-0.1479 0.415932,0 1.340226,-0.1294 0.924293,-0.1294 0.924293,-0.1941 0,-0.083 -0.508361,-0.342 -0.600791,-0.3235 -1.044451,-0.8596 -0.452903,-0.5453 -0.452903,-0.9335 z m -1.931772,6.4607 q -0.341988,0 -0.868835,0.065 -0.526847,0.065 -0.878079,0.065 -0.175608,0 -0.231072,-0.01 -0.14788,-0.028 -0.231075,-0.1017 -0.09242,-0.083 -0.09242,-0.1664 0,-0.1109 0.101679,-0.1571 0.06469,-0.028 0.683976,-0.083 0.619277,-0.055 1.210824,-0.1017 0.591547,-0.046 0.610033,-0.065 0.0092,-0.01 0.0092,-0.028 0,-0.074 -0.07395,-0.4252 -0.08319,-0.3605 -0.08319,-0.5915 0,-0.4622 0.203338,-0.4622 0.203337,0 0.452902,1.0167 l 0.110915,0.4622 1.562057,-0.055 q 1.377195,-0.046 2.578777,-0.1756 1.192338,-0.1294 1.349466,-0.1294 0.286532,0 0.286532,0.2126 0,0.1664 -0.295774,0.2773 -0.295774,0.1017 -0.767164,0.1017 -0.341987,0 -0.693219,0.028 -0.360475,0.028 -1.109152,0.1017 -0.757919,0.065 -1.552812,0.1294 -0.425174,0.028 -0.656246,0.046 -0.231075,0.01 -0.34199,0.028 -0.110915,0.019 -0.129409,0.028 -0.02773,0.01 -0.02773,0.037 0,0.1479 0.101679,0.7117 0.10168,0.5639 0.10168,0.7025 0,0.2681 -0.221831,0.2681 -0.157137,0 -0.268045,-0.3328 -0.110915,-0.342 -0.194102,-0.7672 -0.09242,-0.4251 -0.157137,-0.5268 -0.07395,-0.1017 -0.489876,-0.1017 z m 4.686164,5.897 q 0.184866,0 0.332746,0.1387 0.138644,0.1386 0.231072,0.1386 0.10168,0 0.240317,-0.065 0.203337,-0.092 0.249559,-0.2311 0.04622,-0.1478 0.04622,-0.7117 0,-0.4806 -0.05546,-0.7209 -0.05546,-0.2403 -0.221831,-0.4622 -0.258803,-0.3604 -0.406689,-0.4436 -0.157137,-0.092 -0.526847,-0.092 -0.277288,0 -0.388203,0.1016 -0.120151,0.1017 -0.323503,0.5454 -0.295773,0.6377 -0.295773,0.8226 0,0.3974 -0.693219,1.2201 -0.69322,0.8133 -1.03521,0.8133 -0.489874,0 -1.118393,-0.4991 -0.637763,-0.4991 -0.933537,-1.1184 -0.157137,-0.3142 -0.157137,-1.1923 0,-0.3882 0.05546,-0.5823 0.05546,-0.1941 0.240314,-0.4159 0.129409,-0.1572 0.305017,-0.2773 0.166373,-0.1202 0.258803,-0.1202 0.221831,0 0.221831,0.074 0,0.074 -0.09242,0.1941 -0.09242,0.1201 -0.194102,0.2495 -0.110915,0.1294 -0.203337,0.3697 -0.09242,0.2404 -0.09242,0.5269 0,0.7764 0.563818,1.4234 0.563818,0.6378 1.220066,0.6378 0.53609,0 1.146123,-1.9041 0.471389,-1.4973 1.469626,-1.4973 0.203337,0 0.471389,0.074 0.720948,0.2126 0.998236,0.721 0.277288,0.5083 0.360474,1.7746 l 0.05546,0.8319 -0.517602,0.2495 q -0.378961,0.1941 -0.757922,0.1941 -0.314259,0 -0.50836,-0.1479 -0.194102,-0.1478 -0.194102,-0.4159 0,-0.2033 0.249559,-0.2033 z M 3.9316306,0 1.7480369,2.1836 v 17.1211 l 2.1835937,2.1836 H 22.132812 V 58.5078 H 3.9316406 l -2.1835937,2.1836 v 17.125 L 3.9316406,80 h 20.3789064 0.0059 L 25.859416,79.3613 39.253947,65.9629 V 77.8164 L 41.437541,80 h 17.125 20.384766 17.121093 l 2.183594,-2.1836 V 60.6914 L 97.611369,59.1465 78.464885,40 97.611369,20.8477 98.251994,19.3047 V 2.1836 L 96.0684,0 H 78.947266 58.5625 41.4375 Z M 6.1152244,4.3672 H 39.253906 V 59.7871 L 23.412109,75.6328 H 6.1152344 V 62.875 H 24.316406 l 2.181641,-2.1836 V 19.3047 L 24.316406,17.1211 H 6.1152344 Z m 37.5058596,0 h 12.757812 v 14.9375 12.1328 17.125 12.1289 14.9414 H 43.621094 V 60.6914 Z m 17.125,0 h 18.201172 14.9375 V 18.4004 L 73.833974,38.457 v 3.086 L 93.884756,61.5996 V 75.6328 H 78.947256 60.746084 V 62.875 h 18.201172 l 2.183593,-2.1836 V 59.6641 L 80.490224,58.1191 69.390615,47.0195 67.845693,46.3789 H 60.746084 V 33.6211 h 7.099609 l 1.544922,-0.6406 11.099609,-11.0996 0.640625,-1.545 V 19.3047 L 78.947256,17.1211 H 60.746094 Z m 0,17.1211 h 13.960937 l -7.763672,7.7656 h -6.197265 z m 0,29.2578 h 6.197265 l 7.759766,7.7617 H 60.746094 Z"
     inkscape:connector-curvature="0"
     fill="#00a463" />
</svg>
